<svg width="9" height="7" viewBox="0 0 9 7" fill="none" xmlns="http://www.w3.org/2000/svg">
<path d="M3.22593 6.76363C2.95688 6.44847 2.95688 5.9375 3.22593 5.62234L7.8239 0.23637C8.09295 -0.07879 8.52916 -0.0787898 8.79821 0.23637C9.06726 0.551529 9.06726 1.0625 8.79821 1.37766L4.20025 6.76363C3.9312 7.07879 3.49498 7.07879 3.22593 6.76363Z" fill="#232134"/>
<path d="M4.20025 6.76363C3.9312 7.07879 3.49498 7.07879 3.22593 6.76363L0.201787 3.22101C-0.0672625 2.90585 -0.0672624 2.39488 0.201787 2.07972C0.470837 1.76456 0.907053 1.76456 1.1761 2.07972L4.20048 5.62241C4.46953 5.93757 4.4693 6.44847 4.20025 6.76363Z" fill="#232134"/>
</svg>