<svg width="15" height="18" viewBox="0 0 15 18" fill="none" xmlns="http://www.w3.org/2000/svg">
<g clip-path="url(#clip0_80_85)">
<path d="M1.9059 9.71813C2.36446 9.10793 2.24624 8.26553 2.17459 7.93073C2.11369 7.64993 2.15847 7.38713 2.30893 7.15313C2.71913 6.51773 3.81359 6.28553 4.34022 6.17393C4.42262 6.15593 4.51576 6.13613 4.54084 6.12893C5.32004 5.82113 5.78756 5.38013 5.93086 4.82213C6.10998 4.11473 5.76248 3.18773 4.94925 2.20853C4.50502 1.67393 4.31693 1.16273 4.385 0.682129C1.7411 1.89533 0 4.58453 0 7.53653C0 8.52653 0.186291 9.48413 0.553499 10.3859C1.17148 10.3157 1.62467 10.0907 1.9059 9.71813Z" fill="rgb(29, 171, 97)"/>
<path d="M8.06252 15.0517C7.66845 14.4181 7.33885 13.8241 7.07554 13.2715C6.48622 13.3975 5.99541 13.3957 5.54401 13.2679C5.52968 13.2643 5.51535 13.2571 5.50102 13.2517C5.4652 13.2337 5.42758 13.2121 5.39176 13.1923C4.77377 12.8467 3.90322 12.9187 2.7998 13.4047C4.12892 14.4829 5.78404 15.0715 7.50186 15.0715C7.68815 15.0733 7.87623 15.0661 8.06252 15.0517Z" fill="rgb(29, 171, 97)"/>
<path d="M5.63345 12.753C5.65674 12.7656 5.68002 12.78 5.70152 12.7908C6.03827 12.8826 6.41265 12.8862 6.86046 12.8016C6.47534 11.9016 6.28188 11.1222 6.28188 10.4688C6.28188 8.37 7.98358 6.66 10.074 6.66C10.228 6.66 10.3803 6.669 10.5308 6.687C10.6131 6.5772 10.6579 6.4422 10.6579 6.3054C10.6579 6.1866 10.6257 6.0732 10.5612 5.9706C10.5594 5.9688 10.554 5.958 10.5487 5.9508C10.3695 5.6538 10.3534 5.2902 10.5057 4.9788C10.6597 4.662 10.9607 4.4514 11.3082 4.4118C12.7877 4.2426 13.7998 4.7034 14.158 5.7096C14.3121 6.1434 14.5682 6.4386 14.9408 6.606C14.4859 2.8872 11.3225 0 7.49994 0C6.63834 0 5.79287 0.1458 4.98501 0.4356C4.7629 0.8622 4.87754 1.3374 5.33252 1.8846C6.26397 3.006 6.64014 4.0662 6.41623 4.9464C6.23173 5.6718 5.66211 6.2262 4.72349 6.5988C4.66975 6.6204 4.59452 6.6366 4.44584 6.669C4.02132 6.759 3.02896 6.9696 2.73161 7.4304C2.65459 7.551 2.63309 7.677 2.66533 7.8282C2.75131 8.2296 2.89103 9.2466 2.30708 10.0242C1.96674 10.4778 1.45265 10.7604 0.771973 10.8684C1.16963 11.682 1.72313 12.4272 2.38411 13.0482C3.73651 12.4002 4.82917 12.303 5.63345 12.753ZM6.76552 1.2276C6.82822 0.9666 7.04675 0.7776 7.31186 0.7578C9.17656 0.6102 9.91814 1.305 10.2119 1.9152C10.3194 2.1402 10.2997 2.3976 10.1564 2.6028C10.0274 2.79 9.81604 2.898 9.59213 2.898C9.56884 2.898 9.54735 2.8962 9.52406 2.8944C8.78965 2.8224 7.49815 2.6658 7.0987 2.4426C6.74403 2.2446 6.62581 1.8126 6.76552 1.2276Z" fill="rgb(29, 171, 97)"/>
<path d="M15.0001 7.53661C15.0001 7.41061 14.9965 7.28462 14.9911 7.15862C14.366 6.96602 13.9182 6.52682 13.6871 5.87882C13.3378 4.90142 12.2326 4.81322 11.3656 4.91222C11.1883 4.93382 11.036 5.04002 10.9572 5.20202C10.8784 5.36222 10.8874 5.54042 10.9805 5.69342C10.9823 5.69522 10.9823 5.69702 10.9841 5.69882C10.9841 5.70062 10.9859 5.70242 10.9877 5.70422C11.1023 5.88782 11.1596 6.08942 11.1596 6.30542C11.1596 6.47282 11.122 6.63662 11.0522 6.78781C12.6715 7.22162 13.8662 8.70842 13.8662 10.4688C13.8662 10.8882 13.7856 11.3616 13.6262 11.8854C14.5182 10.6236 15.0001 9.11701 15.0001 7.53661Z" fill="rgb(29, 171, 97)"/>
<path d="M10.0742 7.16406C8.25969 7.16406 6.78369 8.64726 6.78369 10.4707C6.78369 11.5741 7.44108 13.1635 8.70213 15.1237C8.93678 15.4873 9.19114 15.8653 9.467 16.2541C9.47237 16.2613 9.47774 16.2685 9.48312 16.2775C9.58522 16.4215 9.6909 16.5691 9.80017 16.7167C9.86645 16.8067 9.96676 16.8571 10.076 16.8571C10.1853 16.8571 10.2874 16.8067 10.3519 16.7167C10.4611 16.5673 10.5668 16.4179 10.6707 16.2721C10.6743 16.2667 10.6779 16.2613 10.6815 16.2577C11.5646 15.0103 12.2381 13.8853 12.6895 12.9097C12.6931 12.9025 12.6948 12.8953 12.6984 12.8881C13.1391 11.9305 13.3666 11.1151 13.3666 10.4689C13.3648 8.64726 11.8888 7.16406 10.0742 7.16406ZM10.1513 11.6425C9.33444 11.6425 8.66989 10.9747 8.66989 10.1539C8.66989 9.33306 9.33444 8.66526 10.1513 8.66526C10.9681 8.66526 11.6326 9.33306 11.6326 10.1539C11.6326 10.9747 10.9681 11.6425 10.1513 11.6425Z" fill="rgb(29, 171, 97)"/>
<path d="M11.0017 16.668C10.9211 16.7832 10.8369 16.8984 10.7527 17.0136C10.5915 17.2332 10.3443 17.3592 10.0738 17.3592C9.80158 17.3592 9.55438 17.2332 9.39496 17.0136C9.31077 16.8966 9.22658 16.7814 9.14418 16.668C7.57504 16.7886 6.90869 17.1774 6.90869 17.316C6.90869 17.3556 7.05378 17.5518 7.72551 17.7354C8.34886 17.9064 9.18359 18 10.0756 18C10.9659 18 11.8006 17.9064 12.4258 17.7354C13.0957 17.5518 13.2426 17.3538 13.2426 17.316C13.239 17.1756 12.5727 16.7886 11.0017 16.668Z" fill="rgb(29, 171, 97)"/>
</g>
<defs>
<clipPath id="clip0_80_85">
<rect width="15" height="18" fill="white"/>
</clipPath>
</defs>
</svg>
