<svg width="14" height="14" viewBox="0 0 14 14" fill="none" xmlns="http://www.w3.org/2000/svg">
<path d="M13.8173 6.54941L7.45323 0.186092C7.20507 -0.0620308 6.79838 -0.0620308 6.5485 0.186092L0.184392 6.54941C0.0585918 6.6752 0 6.84234 0 7.00086V13.3642C0 13.714 0.286066 14 0.635894 14H4.4547C4.80453 14 5.0906 13.714 5.0906 13.3642V10.1834C5.0906 9.8336 5.37666 9.54757 5.72649 9.54757H8.27179C8.62162 9.54757 8.90768 9.8336 8.90768 10.1834V13.3642C8.90768 13.714 9.19375 14 9.54358 14H13.3624C13.7122 14 13.9983 13.714 13.9983 13.3642V7.00086C14 6.84234 13.9431 6.67692 13.8173 6.54941ZM7.00172 6.36505C6.30207 6.36505 5.72821 5.79298 5.72821 5.09169C5.72821 4.3904 6.30034 3.81834 7.00172 3.81834C7.7031 3.81834 8.27523 4.3904 8.27523 5.09169C8.27523 5.79298 7.70138 6.36505 7.00172 6.36505Z" fill="rgb(29, 171, 97)"/>
</svg>
