<svg width="10" height="15" viewBox="0 0 10 15" fill="none" xmlns="http://www.w3.org/2000/svg">
<path d="M4.99864 0C2.24218 0 0 2.29526 0 5.11699C0 6.82451 0.99864 9.28412 2.91429 12.3175C3.27075 12.8802 3.65714 13.4652 4.07619 14.0669C4.08435 14.078 4.09252 14.0891 4.10068 14.1031C4.25578 14.3259 4.41633 14.5543 4.58231 14.7827C4.68299 14.922 4.83537 15 5.00136 15C5.16735 15 5.32245 14.922 5.42041 14.7827C5.58639 14.5515 5.74694 14.3203 5.90476 14.0947C5.9102 14.0864 5.91565 14.078 5.92109 14.0724C7.26259 12.1421 8.28571 10.4011 8.97143 8.89137C8.97687 8.88022 8.97959 8.86908 8.98503 8.85794C9.65442 7.37604 10 6.11421 10 5.11421C9.99728 2.29526 7.7551 0 4.99864 0ZM5.11565 6.93036C3.87483 6.93036 2.86531 5.89694 2.86531 4.62674C2.86531 3.35655 3.87483 2.32312 5.11565 2.32312C6.35646 2.32312 7.36599 3.35655 7.36599 4.62674C7.36599 5.89694 6.35646 6.93036 5.11565 6.93036Z" fill="rgb(29, 171, 97)"/>
</svg>
