<svg width="15" height="16" viewBox="0 0 15 16" fill="none" xmlns="http://www.w3.org/2000/svg">
<path d="M14.6052 11.8405L11.2274 10.4225C10.5475 10.1388 9.77979 10.3043 9.27532 10.8715L8.88051 11.2969C8.70504 11.486 8.4199 11.5332 8.20057 11.3914C7.21355 10.777 5.39306 9.42984 4.25251 7.18464C4.12091 6.92467 4.16477 6.5938 4.38411 6.40473L4.84472 6.00295C5.50273 5.43575 5.72206 4.46677 5.37113 3.66322L3.96737 0.354505C3.87964 0.118168 3.6603 0 3.44096 0C2.80489 0.0236337 0.72119 0.283604 0.128981 2.88331C-0.046488 3.63959 -0.046488 4.46677 0.150915 5.31758C0.699256 7.72821 3.15583 15.6691 11.6003 16H11.7319C12.5873 16 13.4208 15.6455 14.0349 15.0074C14.671 14.3456 15 13.4712 15 12.5022V12.4313C14.9781 12.1477 14.8245 11.935 14.6052 11.8405Z" fill="rgb(29, 171, 97)"/>
</svg>
